<?xml version="1.0" encoding="UTF-8"?>
<!DOCTYPE svg PUBLIC "-//W3C//DTD SVG 1.1//EN" "http://www.w3.org/Graphics/SVG/1.1/DTD/svg11.dtd">
<!-- Creator: CorelDRAW 2020 (64-Bit) -->
<svg xmlns="http://www.w3.org/2000/svg" xml:space="preserve" width="21.1666mm" height="45.8046mm" version="1.1" style="shape-rendering:geometricPrecision; text-rendering:geometricPrecision; image-rendering:optimizeQuality; fill-rule:evenodd; clip-rule:evenodd"
viewBox="0 0 4.5305 9.804"
 xmlns:xlink="http://www.w3.org/1999/xlink"
 xmlns:xodm="http://www.corel.com/coreldraw/odm/2003">
 <defs>
  <style type="text/css">
   <![CDATA[
    .fil0 {fill:#333333}
   ]]>
  </style>
 </defs>
 <g id="Layer_x0020_1">
  <metadata id="CorelCorpID_0Corel-Layer"/>
  <path class="fil0" d="M0.4712 0l0.6713 0c0.0386,0.0399 0.0621,0.0731 0.0705,0.0997 0.0105,0.1284 0.0648,0.207 0.1631,0.2356 0,0 0.3262,0 0.9786,0 0.6524,0 0.9786,0 0.9786,0 0.0983,-0.0286 0.1526,-0.1072 0.1631,-0.2356 0.0084,-0.0265 0.032,-0.0598 0.0705,-0.0997l0.4924 0c0.2592,0 0.4712,0.212 0.4712,0.4712l0 8.8617c0,0.2592 -0.212,0.4712 -0.4712,0.4712l-3.5882 0c-0.2592,0 -0.4712,-0.212 -0.4712,-0.4712l0 -8.8617c0,-0.2592 0.212,-0.4712 0.4712,-0.4712z"/>
 </g>
</svg>
